<?xml version="1.0" standalone="no"?>
<!DOCTYPE svg PUBLIC "-//W3C//DTD SVG 20010904//EN"
 "http://www.w3.org/TR/2001/REC-SVG-20010904/DTD/svg10.dtd">
<svg version="1.0" xmlns="http://www.w3.org/2000/svg"
 width="70.000000pt" height="70.000000pt" viewBox="0 0 70.000000 70.000000"
 preserveAspectRatio="xMidYMid meet">
<metadata>
Created by potrace 1.11, written by Peter Selinger 2001-2013
</metadata>
<g transform="translate(0.000000,70.000000) scale(0.100000,-0.100000)"
fill="#000000" stroke="none">
<path d="M0 653 l0 -48 150 0 c108 0 153 -3 158 -12 4 -7 26 -16 47 -21 30 -6
41 -13 43 -30 2 -12 10 -22 18 -22 30 0 13 -29 -22 -36 -19 -4 -38 -14 -41
-23 -3 -9 -15 -23 -26 -32 -20 -16 -20 -17 14 -24 46 -10 60 -23 54 -51 -3
-13 -7 -35 -10 -49 -3 -14 -10 -23 -15 -20 -6 3 -10 2 -10 -2 0 -5 -20 -14
-45 -21 -56 -15 -58 -30 -5 -38 22 -4 43 -11 46 -16 8 -13 -16 -38 -37 -38
-28 0 -23 -29 7 -40 33 -13 26 -32 -16 -43 -19 -5 -39 -15 -44 -22 -6 -8 -40
-18 -76 -22 -50 -6 -65 -12 -68 -25 -3 -17 16 -18 287 -18 l291 0 0 350 0 350
-350 0 -350 0 0 -47z"/>
</g>
</svg>
